<svg width="71.633px" height="71.633px" viewBox="-9.86 0 71.633 71.633" xmlns="http://www.w3.org/2000/svg">
  <g id="Space-Shuttle" transform="translate(2)">
    <g id="Rectangle-1">
      <path id="Path_25" data-name="Path 25" d="M25.657,3.276h0M24,5.155a20.632,20.632,0,0,1,4,10.962V62.181a2.008,2.008,0,0,1-2,2.008H22a2.008,2.008,0,0,1-2-2.008V16.118A20.632,20.632,0,0,1,24,5.155M24,0A1.774,1.774,0,0,0,22.67.616L21.314,2.14A24.3,24.3,0,0,0,16,16.118V62.181a6,6,0,0,0,6,6.008H26a6,6,0,0,0,6-6.008V16.118A24.281,24.281,0,0,0,26.686,2.14L25.33.616A1.777,1.777,0,0,0,24,0Z" fill="#00699b"/>
    </g>
    <g id="Line_3_">
      <path id="Path_26" data-name="Path 26" d="M24,71.633a2,2,0,0,1-2-2V54.5a2,2,0,0,1,4,0V69.633A2,2,0,0,1,24,71.633Z" fill="#00699b"/>
    </g>
    <g id="Path-6">
      <path id="Path_27" data-name="Path 27" d="M17.879,62c-4.056,0-17.25-.374-19.661-5.1A2,2,0,0,1-2,55.992C-2,49.478.219,46.9,3.29,43.332c3.236-3.76,7.667-8.91,12.762-22.054a2,2,0,1,1,3.729,1.445C14.438,36.509,9.553,42.185,6.321,45.94c-2.755,3.2-4.2,4.876-4.313,9.429C3.522,56.782,10.708,58,17.878,58h.038a2,2,0,1,1-.037,4Z" fill="#00699b"/>
    </g>
    <g id="Path-6-Copy">
      <path id="Path_28" data-name="Path 28" d="M30.037,62A2.024,2.024,0,0,1,28,60a2,2,0,0,1,2-2h.016c7.179,0,14.377-1.221,15.893-2.633-.118-4.552-1.559-6.227-4.313-9.429-3.232-3.756-8.117-9.432-13.46-23.218a2,2,0,0,1,3.729-1.445c5.095,13.144,9.526,18.294,12.762,22.054,3.071,3.568,5.29,6.146,5.29,12.661a2,2,0,0,1-.218.909C47.288,61.628,34.094,62,30.037,62Zm17.879-6.01h0Z" fill="#00699b"/>
    </g>
  </g>
</svg>
